<svg width="19" height="19" viewBox="0 0 19 19" fill="none" xmlns="http://www.w3.org/2000/svg">
<path d="M9.55 18.3561V0.643887C14.4274 0.670686 18.3562 4.61617 18.3562 9.5C18.3562 14.3838 14.4274 18.3293 9.55 18.3561Z" fill="#F9F9F9" stroke="#699635" stroke-width="0.1"/>
<path d="M0.59375 9.5C0.59375 14.4281 4.57187 18.4062 9.5 18.4062V0.59375C4.57187 0.59375 0.59375 4.57187 0.59375 9.5Z" fill="#699635"/>
<path d="M12.0828 11.5781L12.0531 9.975L13.6562 9.5L12.0531 9.025L12.0828 7.42188L11.1031 8.69844L9.5 8.22344L10.4797 9.5L9.5 10.7766L11.1031 10.3016L12.0828 11.5781Z" fill="#ED4C5C"/>
<path d="M11.0438 13.0625C9.08438 13.0625 7.51094 11.4594 7.51094 9.5C7.51094 7.54063 9.08438 5.9375 11.0438 5.9375C11.7859 5.9375 12.4688 6.175 13.0625 6.56094C12.2609 5.64063 11.0734 5.04688 9.7375 5.04688C7.30312 5.04688 5.34375 7.03594 5.34375 9.5C5.34375 11.9641 7.30312 13.9531 9.7375 13.9531C11.0734 13.9531 12.2609 13.3594 13.0625 12.4391C12.4984 12.825 11.8156 13.0625 11.0438 13.0625Z" fill="#ED4C5C"/>
</svg>
